<?xml version="1.0" encoding="UTF-8"?>
<svg width="101px" height="109px" viewBox="0 0 101 109" version="1.1" xmlns="http://www.w3.org/2000/svg" xmlns:xlink="http://www.w3.org/1999/xlink">
    <!-- Generator: Sketch 54.1 (76490) - https://sketchapp.com -->
    <title>brigadeiro</title>
    <desc>Created with Sketch.</desc>
    <defs>
        <path d="M51.7737838,109 L49.217673,109 C40.7403619,108.72791 26.1973416,106.000807 26.1973416,106.000807 C23.1462923,106.000807 20.3562251,104.176143 19.2131613,101.446597 L1.08823886,69.1942752 L2.1047546,68.2268872 C3.6199526,66.78271 5.37885903,65.720473 7.25267266,65.0092866 C7.22826427,64.6473337 15.4670361,73.9429072 7.25267266,63.9506836 C2.71717877,58.4335587 0.0130112297,51.1539024 0,43.1429332 L1.41527014e-09,43.026745 C0.0104964628,36.5618515 1.7732522,29.6247595 5.73897672,22.7560193 C5.67964554,22.5052689 9.84108897,15.2171526 19.2131613,8.92222622 C28.584858,2.6272998 40.540465,0.270245604 50.1675111,0.016587906 C59.7945572,-0.237069792 71.5646604,2.40416824 82.1019518,8.92222622 C90.1383217,13.893263 96.5231821,22.4536652 96.4409446,22.7560193 C105.27453,40.0476247 99.4750957,54.8458985 94.1093797,63.9506836 C88.7436636,73.0554686 94.090604,64.6418826 94.0661956,65.0020184 C94.0414117,65.3621542 97.7007932,66.780893 99.2159912,68.2305213 L100.224621,69.1979092 L82.1019518,101.446597 C80.958888,104.176143 78.1684453,106.000807 75.1177715,106.000807 C75.1177715,106.000807 60.2198367,108.72791 51.7737838,109 Z M56.6218415,46.9988632 C56.8505294,47.8143473 57.6116958,48.3500084 58.4449608,48.3500084 C58.6075583,48.3500084 58.7735353,48.330021 58.9398879,48.2860488 L67.0937936,46.1506726 C68.100546,45.8872029 68.6957353,44.8834743 68.4234878,43.9091816 C68.1516159,42.9327085 67.1163244,42.3476241 66.1054414,42.621996 L57.9519112,44.7573722 C56.9447834,45.0208419 56.3499696,46.0245705 56.6218415,46.9988632 Z M39.4522261,18.1425745 C39.680914,18.9580586 40.4420804,19.4937197 41.2753454,19.4937197 C41.4379428,19.4937197 41.6039199,19.4737323 41.7702725,19.4297601 L49.9238027,17.2943839 C50.9309306,17.0309142 51.5261199,16.0271856 51.2538724,15.0528929 C50.9820004,14.0764198 49.946709,13.4913354 48.935826,13.7657073 L40.7822958,15.9010836 C39.7751679,16.1645532 39.1803542,17.1682818 39.4522261,18.1425745 Z M46.0826725,6.12036254 C46.3113604,6.9358466 47.0725267,7.4715077 47.9057918,7.4715077 C48.0680137,7.4715077 48.2343663,7.45152034 48.4007189,7.40754816 L56.5542491,5.2721719 C57.5613769,5.00870223 58.1561907,4.00497363 57.8843188,3.03068095 C57.6120713,2.05420784 56.5771554,1.46912346 55.5662724,1.74349533 L47.4127422,3.87887159 C46.4056143,4.14234126 45.810425,5.14606986 46.0826725,6.12036254 Z M67.1696474,20.1155081 C67.1974354,19.2713149 66.6311607,18.5434118 65.8343205,18.3079244 C65.6788578,18.2617718 65.5140072,18.2341529 65.3416464,18.2290652 L56.8993462,17.964142 C55.8565445,17.9307086 54.984226,18.7222078 54.9500543,19.7310241 C54.915507,20.7416574 55.7284943,21.5942089 56.7780552,21.6178303 L65.220731,21.8827536 C66.2631572,21.9158236 67.1354756,21.1243244 67.1696474,20.1155081 Z M80.2240076,63.343068 C80.4526954,64.1581887 81.2138618,64.6942132 82.0471268,64.6942132 C82.2097243,64.6942132 82.3757014,64.6738624 82.542054,64.6298902 L90.6955841,62.494514 C91.702712,62.2314077 92.2979013,61.2276791 92.0256538,60.253023 C91.7537819,59.2769133 90.7184905,58.6918289 89.7076074,58.9662008 L81.5540773,61.1015771 C80.5469494,61.3646833 79.9521356,62.3684119 80.2240076,63.343068 Z M5.87528821,48.9776113 C6.10397609,49.7927319 6.86514247,50.328393 7.69840749,50.328393 C7.86100495,50.328393 8.02698203,50.3084057 8.19333462,50.2644335 L16.3468648,48.1290572 C17.3539927,47.865951 17.949182,46.8622224 17.6769345,45.8875663 C17.4050625,44.9114566 16.3697711,44.3263722 15.3588881,44.6007441 L7.20535793,46.7361203 C6.19823004,46.9992266 5.60341625,48.0029552 5.87528821,48.9776113 Z M15.1741353,15.2418643 C15.4028232,16.0569849 16.1643651,16.592646 16.9972546,16.592646 C17.1598521,16.592646 17.3262047,16.5726587 17.4921817,16.5286865 L25.6460874,14.3933102 C26.6528398,14.130204 27.2480291,13.1264754 26.9757816,12.1518193 C26.7039097,11.1757096 25.6686182,10.5906252 24.6581107,10.8649971 L16.504205,13.0003733 C15.4974527,13.2634796 14.9022634,14.2672082 15.1741353,15.2418643 Z M6.08858002,28.0995477 C6.31689239,28.9150317 7.07843428,29.4506928 7.91132379,29.4506928 C8.07392124,29.4506928 8.24027384,29.4307055 8.40662643,29.3867333 L16.5601566,27.251357 C17.566909,26.9878874 18.1620983,25.9841588 17.8902263,25.0098661 C17.6179788,24.033393 16.5826874,23.448672 15.5721799,23.7226805 L7.41827423,25.8580567 C6.41152185,26.1215264 5.81633255,27.125255 6.08858002,28.0995477 Z M63.3018557,11.9094272 C63.5301681,12.7249113 64.29171,13.2605723 65.124975,13.2605723 C65.2871969,13.2605723 65.4535495,13.2402216 65.6199021,13.1962494 L73.7734323,11.0608731 C74.7805602,10.7977669 75.375374,9.79403828 75.103502,8.8193822 C74.8312545,7.84327249 73.7959631,7.25818811 72.7854556,7.53255998 L64.6319254,9.66793624 C63.6247975,9.93104251 63.0296082,10.9347711 63.3018557,11.9094272 Z M23.9761777,34.3912034 C24.2048656,35.2066875 24.966032,35.7423486 25.799297,35.7423486 C25.9618945,35.7423486 26.1278716,35.7219978 26.2942241,35.6783891 L34.4481298,33.5426494 C35.4548822,33.2795431 36.0500715,32.2758145 35.777824,31.3015219 C35.5059521,30.3250487 34.4706606,29.7399644 33.4597776,30.0143362 L25.3062475,32.1497125 C24.2991196,32.4128188 23.7043058,33.4165474 23.9761777,34.3912034 Z M50.1258291,32.8812497 C50.354517,33.6963703 51.1160589,34.2320314 51.9489484,34.2320314 C52.1115458,34.2320314 52.2778984,34.2120441 52.4438755,34.1680719 L60.5977812,32.0326956 C61.6045335,31.7695894 62.1997228,30.7658608 61.9274754,29.7912047 C61.6556034,28.815095 60.620312,28.2300106 59.6098045,28.5043825 L51.4558988,30.6397587 C50.4491464,30.902865 49.8539571,31.9065936 50.1258291,32.8812497 Z M69.657426,40.2224232 C70.3183302,40.774801 71.2589922,40.8067808 71.949562,40.3557934 C72.0843714,40.267849 72.210544,40.161371 72.3228226,40.0349055 L77.8488831,33.8522717 C78.5315671,33.0891181 78.4448234,31.9349393 77.6562445,31.2742664 C76.8665391,30.6121398 75.6701523,30.687365 74.9908479,31.4617841 L69.465163,37.6444179 C68.782479,38.4075715 68.8688471,39.5617503 69.657426,40.2224232 Z M59.7393567,65.8807352 C59.9676691,66.6962193 60.729211,67.2318804 61.5621005,67.2318804 C61.7246979,67.2318804 61.8910505,67.211893 62.0570276,67.1679208 L70.2109333,65.0325446 C71.2176857,64.7694383 71.812875,63.7657097 71.541003,62.7910536 C71.2687555,61.8149439 70.2334641,61.2298595 69.2229566,61.503868 L61.0690509,63.6392443 C60.0622985,63.9027139 59.4671092,64.9064425 59.7393567,65.8807352 Z M34.1578577,65.8807352 C34.3865456,66.6962193 35.1477119,67.2318804 35.980977,67.2318804 C36.1431989,67.2318804 36.3095515,67.211893 36.4759041,67.1679208 L44.6294343,65.0325446 C45.6365621,64.7694383 46.2313759,63.7657097 45.959504,62.7910536 C45.687632,61.8149439 44.6523406,61.2298595 43.6414576,61.503868 L35.4879274,63.6392443 C34.4807995,63.9027139 33.8859857,64.9064425 34.1578577,65.8807352 Z M32.201431,18.9736851 C32.9806221,19.3548984 33.9013818,19.1659271 34.4590197,18.5666698 C34.5675432,18.449653 34.6632992,18.3166462 34.7410305,18.168013 L38.5570013,10.8751725 C39.0286466,9.97465128 38.656137,8.87498338 37.7256139,8.41854489 C36.7939642,7.96101618 35.6520269,8.31424724 35.1863899,9.22458038 L31.3700436,16.5174209 C30.8987738,17.4175787 31.2712835,18.5172466 32.201431,18.9736851 Z M49.2884334,8.69182654 C48.978259,9.48150874 49.2685312,10.3478697 49.9425784,10.8221151 C50.0740082,10.9144203 50.2208341,10.9925527 50.3819295,11.051788 L58.2756041,13.9623102 C59.2500623,14.3220826 60.3409298,13.848564 60.7126884,12.9055243 C61.0855735,11.9606675 60.6034139,10.8987939 59.6191923,10.5455628 L51.7258932,7.6350406 C50.751435,7.27526822 49.660192,7.74878681 49.2884334,8.69182654 Z M82.0940661,23.6950616 C81.5232852,24.3346569 81.4902399,25.2449901 81.955877,25.9132945 C82.0467513,26.0437574 82.1571524,26.165862 82.2874556,26.2745205 L88.6764467,31.6224097 C89.4650256,32.2830827 90.6576572,32.1991358 91.3403412,31.4359822 C92.0245273,30.6717385 91.946796,29.5139256 91.1465761,28.8565233 L84.7579606,23.5089975 C83.9690062,22.8483246 82.7767501,22.931908 82.0940661,23.6950616 Z M82.8368323,48.6033026 C82.2660514,49.242898 82.2330062,50.1532311 82.6990187,50.8215356 C82.7895175,50.9519985 82.8999186,51.0741031 83.0305974,51.183125 L89.4192129,56.5306508 C90.2077918,57.1913237 91.4004234,57.1073768 92.0831075,56.3442233 C92.7672935,55.5799796 92.6895622,54.4221666 91.8893424,53.7647644 L85.5007268,48.4172385 C84.712148,47.7565656 83.5195163,47.8401491 82.8368323,48.6033026 Z M28.161654,38.6903017 C27.2889601,38.7077452 26.5675982,39.293193 26.3659473,40.0752436 C26.3268938,40.2278743 26.3066161,40.3888634 26.3103712,40.5556669 L26.4789769,48.7286779 C26.4992547,49.7378576 27.3618097,50.5395322 28.4046114,50.5199082 C29.4492907,50.5006477 30.2863109,49.6699006 30.2558943,48.654543 L30.0872886,40.481532 C30.0670108,39.4723523 29.2044557,38.6706777 28.161654,38.6903017 Z M49.2148327,44.6821471 C48.3421387,44.6995906 47.6207768,45.2850384 47.4195015,46.0670891 C47.3800725,46.2197198 47.3597948,46.3807088 47.3635499,46.5475124 L47.5321556,54.7205233 C47.5524333,55.729703 48.4149884,56.5313776 49.4577901,56.5117537 C50.5024694,56.4924931 51.3394895,55.661746 51.3090729,54.6463884 L51.1404672,46.4733775 C51.1201895,45.4641978 50.2576344,44.6625232 49.2148327,44.6821471 Z M88.1939115,31.9422074 C87.320842,31.9596509 86.5998556,32.5450987 86.3982047,33.3271494 C86.3587758,33.4797801 86.3388735,33.6407691 86.3426287,33.8075727 L86.5108588,41.9805836 C86.5315121,42.9897633 87.3936917,43.7914379 88.4364934,43.771814 C89.4811726,43.7525534 90.3181928,42.9218063 90.2877762,41.9064487 L90.119546,33.7334378 C90.0988928,32.7242581 89.2367132,31.9225835 88.1939115,31.9422074 Z M13.2706561,28.8252703 C12.3979621,28.8427139 11.6766002,29.4277982 11.4749493,30.2102123 C11.4358959,30.362843 11.4156181,30.5238321 11.4193733,30.6906356 L11.587979,38.8636465 C11.6082567,39.8728262 12.4708118,40.6745009 13.5136135,40.6545135 C14.5582928,40.635253 15.3953129,39.8048692 15.3648963,38.7895116 L15.1962906,30.6165007 C15.1760129,29.607321 14.3134578,28.8056464 13.2706561,28.8252703 Z M76.6153204,55.504391 C75.7426264,55.5214711 75.0212645,56.1069189 74.8196136,56.889333 C74.7805602,57.0419637 74.7602824,57.2029527 74.7640376,57.3693929 L74.9326432,65.5424038 C74.952921,66.5515835 75.8154761,67.3532581 76.8582778,67.3336342 C77.902957,67.3143736 78.7399772,66.4836265 78.7095606,65.4682689 L78.5409549,57.295258 C78.5206772,56.2860783 77.6581221,55.4844037 76.6153204,55.504391 Z M17.8327727,53.7803908 C16.9600787,53.7978344 16.2387168,54.3829187 16.0370659,55.1653328 C15.997637,55.3179635 15.9777348,55.4789526 15.9814899,55.6457561 L16.1500956,63.818767 C16.1703733,64.8279467 17.0325529,65.6296214 18.0753546,65.609634 C19.1200339,65.5903735 19.957054,64.7599897 19.9266374,63.7446321 L19.7584072,55.5716212 C19.7381295,54.5624415 18.8755744,53.7607669 17.8327727,53.7803908 Z M21.7219687,56.9540193 L27.3895978,58.7823171 C27.587869,58.8462767 27.7898954,58.8771662 27.9862891,58.8771662 C28.7778721,58.8771662 29.5146301,58.3927454 29.7793673,57.6266846 C30.1098194,56.6687453 29.5750878,55.6319467 28.5852336,55.313966 L22.9176045,53.4856682 C21.9258726,53.1640535 20.8586625,53.6829979 20.5278349,54.6413007 C20.1973828,55.6010571 20.7321144,56.6356753 21.7219687,56.9540193 Z M42.2779671,53.7287871 C42.3177716,53.7306042 42.3556985,53.7324212 42.3932498,53.7324212 C43.3849817,53.7324212 44.2182467,52.9848941 44.2768268,52.0138721 L44.4356692,49.4325962 C44.4980044,48.4234165 43.7045439,47.5585091 42.6636197,47.4981836 C41.6035444,47.4451263 40.7270953,48.207553 40.66476,49.2130987 L40.5059177,51.7943746 C40.4435824,52.8057348 41.237043,53.6702787 42.2779671,53.7287871 Z M50.1671356,42.5300542 C50.2069401,42.5318712 50.2448669,42.5336882 50.2824183,42.5336882 C51.2741501,42.5336882 52.1074152,41.7857978 52.1659953,40.8151391 L52.3248376,38.2334998 C52.3871729,37.2243201 51.5937124,36.3597761 50.5527882,36.2994507 C49.4927129,36.2463933 48.6162638,37.0088201 48.5539285,38.0143657 L48.3950862,40.5956417 C48.3327509,41.6066384 49.1262115,42.4715457 50.1671356,42.5300542 Z M52.8299036,65.7063001 C52.8693326,65.7081171 52.9072595,65.7099342 52.9451864,65.7099342 C53.9369182,65.7099342 54.7701832,64.9624071 54.8287633,63.9913851 L54.9872302,61.4101091 C55.0495654,60.400566 54.2561049,59.5360221 53.2151807,59.4756966 C52.1554809,59.4226393 51.2786563,60.185066 51.216321,61.1906116 L51.0578542,63.7718876 C50.9955189,64.7832477 51.7889795,65.6477917 52.8299036,65.7063001 Z M61.0529038,9.29798848 C61.0927083,9.29980552 61.1302597,9.30162255 61.1681866,9.30162255 C62.1599184,9.30162255 62.9931834,8.55373209 63.0517636,7.58307347 L63.2102304,5.0014341 C63.2725656,3.9922544 62.4791051,3.12734707 61.4381809,3.0670216 C60.3784811,3.01396426 59.502032,3.77639097 59.4396967,4.78193661 L59.2808544,7.36357598 C59.2185191,8.37457271 60.0119797,9.23948005 61.0529038,9.29798848 Z M11.5834728,59.9601174 C11.6232773,59.9619345 11.6608286,59.9637515 11.6987555,59.9637515 C12.6904873,59.9637515 13.5237524,59.2162244 13.5823325,58.2452024 L13.7407993,55.663563 C13.8031346,54.6543833 13.009674,53.7898394 11.9687499,53.7295139 C10.9090501,53.6764566 10.032601,54.4388833 9.97026571,55.444429 L9.81142339,58.0257049 C9.74908811,59.0370651 10.5425487,59.901609 11.5834728,59.9601174 Z M34.7695696,62.498148 C34.8089985,62.4999651 34.8469254,62.5017821 34.8848523,62.5017821 C35.8765841,62.5017821 36.7098492,61.7538916 36.7684293,60.783233 L36.9268961,58.2015936 C36.9892314,57.1924139 36.1957708,56.3275066 35.1548467,56.2671811 C34.0951469,56.2144872 33.2183223,56.9765505 33.155987,57.9820962 L32.9975202,60.5637355 C32.9351849,61.5747323 33.7286455,62.4396396 34.7695696,62.498148 Z M63.2000915,36.7518917 C63.2263774,36.7809642 63.2511614,36.8085831 63.2774473,36.8347484 C63.9665151,37.5252206 65.1009421,37.5859095 65.863235,36.9521286 L67.8925114,35.2695568 C68.6859719,34.6117911 68.7775973,33.4587025 68.0994194,32.6922783 C67.4024659,31.9174958 66.2267323,31.8368195 65.4362759,32.4920414 L63.4069996,34.1746132 C62.6124125,34.8338325 62.5207871,35.9869211 63.2000915,36.7518917 Z M53.8764605,27.6409287 C53.9027464,27.6696378 53.9275303,27.6972567 53.9538163,27.7237854 C54.642884,28.4142577 55.7773111,28.4745831 56.539604,27.8411657 L58.5688803,26.1582304 C59.3623409,25.5004648 59.4539663,24.3473761 58.7754129,23.5809519 C58.0788349,22.8061694 56.9031013,22.7258566 56.1122694,23.380715 L54.0833685,25.0636502 C53.2884059,25.7225061 53.1967806,26.8755948 53.8764605,27.6409287 Z M77.8316094,22.1818371 C77.8578954,22.2109097 77.8826793,22.2385285 77.9089653,22.2646938 C78.598033,22.9551661 79.7324601,23.0158549 80.494753,22.3820741 L82.5240293,20.6995023 C83.3174899,20.0417366 83.4091152,18.8886479 82.7305619,18.1222238 C82.0339839,17.3474412 80.8582503,17.266765 80.0674183,17.9219868 L78.0385175,19.6045586 C77.2435549,20.2637779 77.1519295,21.4168666 77.8316094,22.1818371 Z M80.4812345,58.6122429 C80.5067694,58.6413154 80.5311778,58.6692977 80.5570883,58.6961898 C81.2333885,59.3982911 82.366689,59.4778771 83.1402474,58.8571789 L85.1995648,57.2087672 C86.0046663,56.564811 86.1169449,55.4135394 85.4526611,54.6354862 C84.7699771,53.8490747 83.5961211,53.7487745 82.7936482,54.3905503 L80.7343308,56.0385985 C79.9277272,56.6840083 79.8154486,57.8352799 80.4812345,58.6122429 Z M33.8473078,51.8601512 C33.8732183,51.8895871 33.8976267,51.9175694 33.9231616,51.9444615 C34.5998374,52.6461993 35.7331379,52.7261488 36.5066962,52.1054505 L38.5656381,50.4570389 C39.3711151,49.8130827 39.4833938,48.6614477 38.8191099,47.8837579 C38.1364259,47.0973463 36.9621944,46.9970462 36.1597215,47.6384585 L34.1007796,49.2868702 C33.294176,49.93228 33.1818974,51.0835516 33.8473078,51.8601512 Z M19.8181139,51.1900297 C19.8440244,51.2191022 19.8684328,51.2470845 19.8939677,51.2739766 C20.5706435,51.9760779 21.703944,52.0556639 22.4775023,51.4349657 L24.5364443,49.7869174 C25.3415457,49.1425978 25.4541999,47.9913262 24.789916,47.213273 C24.1068565,46.4272249 22.9330005,46.3265613 22.1305276,46.9683371 L20.0715857,48.6163853 C19.2649822,49.2617951 19.1527036,50.4134301 19.8181139,51.1900297 Z M19.1748589,41.9002708 C19.2007693,41.9297067 19.2251777,41.957689 19.2507126,41.9842177 C19.9273884,42.6863189 21.0606889,42.7659049 21.8342473,42.1452067 L23.8931892,40.4971585 C24.6982907,39.8528389 24.8109448,38.7015673 24.146661,37.9235141 C23.4636015,37.1374659 22.2897455,37.0368023 21.4872726,37.6785781 L19.4283307,39.3269898 C18.6217271,39.9720362 18.5094485,41.1236712 19.1748589,41.9002708 Z M37.0372972,35.0046335 C37.0632076,35.0340694 37.087616,35.0620517 37.1131509,35.0889438 C37.7898267,35.7906817 38.9227517,35.8706311 39.6966856,35.2499329 L41.7556275,33.6015212 C42.560729,32.957565 42.6733831,31.80593 42.0090993,31.0282402 C41.3260398,30.2418287 40.1521838,30.1415285 39.3497109,30.7829409 L37.2907689,32.4313525 C36.4841654,33.0767623 36.3718868,34.2280339 37.0372972,35.0046335 Z M3.41717517,41.5056114 C4.09347544,42.2073492 5.22677596,42.2869352 6.00033429,41.6666004 L8.05965172,40.0181888 C8.86475321,39.3738692 8.97703183,38.2225976 8.31274799,37.4449078 C7.63006399,36.6584962 6.45620799,36.5581961 5.65373509,37.1996084 L3.59441766,38.8480201 C2.78781412,39.4934299 2.6755355,40.6447015 3.34132139,41.4213011 C3.36685633,41.450737 3.39126472,41.4787193 3.41717517,41.5056114 Z M39.994468,28.3135941 C40.0338969,28.3154111 40.0718238,28.3172281 40.1097507,28.3172281 C41.1014825,28.3172281 41.9347475,27.5693377 41.9929522,26.5986791 L42.1517945,24.0170397 C42.2141298,23.00786 41.4206692,22.1433161 40.3797451,22.0829906 C39.3200453,22.0299332 38.4432207,22.79236 38.3808854,23.7979056 L38.2224186,26.3791816 C38.1600833,27.3901783 38.9535438,28.2550856 39.994468,28.3135941 Z M68.2297227,51.1976612 C67.7096362,51.2238265 67.2485053,51.4516824 66.9248124,51.7998257 C66.6011196,52.1476057 66.4152403,52.6153098 66.4422772,53.1186277 C66.4971023,54.1281708 67.3844413,54.9014997 68.4276185,54.8484424 L71.0956437,54.7132552 C72.1388209,54.6601978 72.9379142,53.8014684 72.8830892,52.7919253 C72.8282642,51.7823822 71.9413007,51.0094167 70.8981235,51.0621106 L68.2297227,51.1976612 Z M77.8289808,43.1598375 C77.3088943,43.1863662 76.8477634,43.414222 76.5240705,43.762002 C76.2003777,44.109782 76.0144984,44.5774861 76.0415354,45.080804 C76.0963604,46.0903471 76.9836994,46.863676 78.0268766,46.8106187 L80.6949018,46.6754315 C81.738079,46.6223741 82.5367968,45.7640081 82.4823473,44.754465 C82.4275223,43.7445585 81.5401833,42.971593 80.4970061,43.0246503 L77.8289808,43.1598375 Z M41.4432,7.62886269 C40.922738,7.65539136 40.4616071,7.8832472 40.1379142,8.23102716 C39.8142214,8.57880713 39.6283421,9.04651122 39.6557546,9.55019256 C39.7102041,10.5597357 40.5975431,11.3327012 41.6407203,11.2800072 L44.3087455,11.1444566 C45.3519227,11.0917627 46.151016,10.2330333 46.096191,9.22349016 C46.0417415,8.21394706 45.1544025,7.44061815 44.1112253,7.49367549 L41.4432,7.62886269 Z M28.6456913,5.17986666 C28.1252292,5.20639533 27.6640983,5.43425117 27.3404055,5.78203114 C27.0170881,6.13017451 26.8308333,6.59787861 26.8582458,7.10119653 C26.9126953,8.11073963 27.8000343,8.88406854 28.8432115,8.8310112 L31.5112367,8.69582401 C32.554414,8.64276667 33.3535072,7.78403724 33.2986822,6.77449414 C33.2442327,5.76495104 32.3568937,4.99198553 31.3137165,5.04467946 L28.6456913,5.17986666 Z M81.4136351,38.6125327 C81.7820141,38.9690344 82.2656758,39.1481938 82.7493376,39.1481938 C83.2329993,39.1481938 83.716661,38.9690344 84.08504,38.6125327 C84.8236755,37.8977122 84.8236755,36.7424431 84.08504,36.0272592 L82.1958303,34.1993248 C81.4571947,33.484141 80.2634365,33.484141 79.524801,34.1993248 C78.7857899,34.9141453 78.7857899,36.0694144 79.524801,36.7842349 L81.4136351,38.6125327 Z M70.0828831,29.945289 C70.4512621,30.3017907 70.9349238,30.4809501 71.4185855,30.4809501 C71.9022472,30.4809501 72.3855334,30.3017907 72.7539124,29.945289 C73.4929235,29.2304685 73.4929235,28.0751994 72.7539124,27.360379 L70.8650782,25.5320811 C70.1260672,24.8172607 68.932309,24.8172607 68.1936734,25.5320811 C67.4550378,26.2469016 67.4550378,27.4021707 68.1936734,28.1169912 L70.0828831,29.945289 Z M92.2994034,50.6318374 C92.6677824,50.9883391 93.1514441,51.1674985 93.6351058,51.1674985 C94.1187675,51.1674985 94.6024292,50.9883391 94.9708082,50.6318374 C95.7094438,49.9170169 95.7094438,48.7613844 94.9708082,48.046564 L93.0815985,46.2182662 C92.342963,45.5034457 91.1488292,45.5034457 90.4101937,46.2182662 C89.6715581,46.9330866 89.6715581,48.0887191 90.4101937,48.8035396 L92.2994034,50.6318374 Z M66.4212485,60.0651419 C66.7896275,60.4216436 67.2732892,60.600803 67.7569509,60.600803 C68.2406126,60.600803 68.7242743,60.4216436 69.0926533,60.0651419 C69.8312889,59.3503214 69.8312889,58.1946889 69.0926533,57.4798684 L67.2034436,55.6515706 C66.4648081,54.9367502 65.2706743,54.9367502 64.5320388,55.6515706 C63.7934032,56.3663911 63.7934032,57.5220236 64.5320388,58.2368441 L66.4212485,60.0651419 Z M72.0126483,47.9022916 C72.3810273,48.2587933 72.864689,48.4379527 73.3483507,48.4379527 C73.8316369,48.4379527 74.3152986,48.2587933 74.6836776,47.9022916 C75.4223132,47.1874711 75.4223132,46.0318386 74.6836776,45.3170182 L72.7944679,43.4887204 C72.0558324,42.7738999 70.8620741,42.7738999 70.1234386,43.4887204 C69.384803,44.2035408 69.384803,45.3591733 70.1234386,46.0739938 L72.0126483,47.9022916 Z M95.1198872,42.1081393 C95.4882662,42.464641 95.9719279,42.6438004 96.4555896,42.6438004 C96.9392513,42.6438004 97.422913,42.464641 97.791292,42.1081393 C98.5299276,41.3933188 98.5299276,40.2380497 97.791292,39.5228658 L95.9020823,37.6949314 C95.1634468,36.9797475 93.969313,36.9797475 93.2306775,37.6949314 C92.4920419,38.4097519 92.4920419,39.565021 93.2306775,40.2798415 L95.1198872,42.1081393 Z M81.4136351,16.2372345 C81.7820141,16.5937363 82.2656758,16.7728956 82.7493376,16.7728956 C83.2329993,16.7728956 83.716661,16.5937363 84.08504,16.2372345 C84.8236755,15.5224141 84.8236755,14.3667816 84.08504,13.6519611 L82.1958303,11.8236633 C81.4571947,11.1088428 80.2634365,11.1088428 79.524801,11.8236633 C78.7857899,12.5384837 78.7857899,13.6941162 79.524801,14.4089367 L81.4136351,16.2372345 Z M77.8511361,53.2174743 C78.2195151,53.573976 78.7031769,53.7531354 79.1868386,53.7531354 C79.6705003,53.7531354 80.154162,53.573976 80.522541,53.2174743 C81.2611766,52.5026538 81.2611766,51.3470213 80.522541,50.6322008 L78.6333313,48.803903 C77.8946957,48.0890825 76.700562,48.0890825 75.9619264,48.803903 C75.2232909,49.5190869 75.2232909,50.674356 75.9619264,51.3891764 L77.8511361,53.2174743 Z M56.1291675,41.3420785 C56.4975465,41.6985802 56.9812082,41.8777396 57.4648699,41.8777396 C57.9485316,41.8777396 58.4321933,41.6985802 58.8005723,41.3420785 C59.5392079,40.627258 59.5392079,39.4716255 58.8005723,38.756805 L56.9113626,36.9285072 C56.1727271,36.2136868 54.9789689,36.2136868 54.2403333,36.9285072 C53.5013222,37.6433277 53.5013222,38.7989602 54.2403333,39.5137807 L56.1291675,41.3420785 Z M33.7049881,25.8271672 C34.0733671,26.1836689 34.5570288,26.3628283 35.0406905,26.3628283 C35.5243522,26.3628283 36.008014,26.1836689 36.3763929,25.8271672 C37.1150285,25.1123467 37.1150285,23.9570776 36.3763929,23.2422571 L34.4871832,21.4139593 C33.7485477,20.6991388 32.554414,20.6991388 31.8157784,21.4139593 C31.0771428,22.1287798 31.0771428,23.2840489 31.8157784,23.9988694 L33.7049881,25.8271672 Z M19.3656199,35.2110484 C19.7339988,35.5675501 20.217285,35.7467095 20.7009468,35.7467095 C21.1846085,35.7467095 21.6682702,35.5675501 22.0366492,35.2110484 C22.7752847,34.4962279 22.7752847,33.3409588 22.0366492,32.6257749 L20.1474395,30.7978405 C19.4088039,30.0826566 18.2150457,30.0826566 17.4764102,30.7978405 C16.7377746,31.512661 16.7377746,32.6679301 17.4764102,33.3827506 L19.3656199,35.2110484 Z M58.6041786,57.1713364 C57.8655431,56.4565159 56.6717849,56.4565159 55.9331493,57.1713364 C55.1945137,57.8861568 55.1945137,59.0417893 55.9331493,59.7566098 L57.822359,61.5849076 C58.190738,61.9414094 58.6740242,62.1205687 59.1576859,62.1205687 C59.6413476,62.1205687 60.1250093,61.9414094 60.4933883,61.5849076 C61.2320239,60.8700872 61.2320239,59.7144547 60.4933883,58.9996342 L58.6041786,57.1713364 Z M60.0885845,50.8506081 C59.349949,50.1357876 58.1561907,50.1357876 57.4175552,50.8506081 C56.6789196,51.5654286 56.6789196,52.7210611 57.4175552,53.4358815 L59.3067649,55.2641794 C59.6751439,55.6206811 60.1588056,55.7998405 60.6420918,55.7998405 C61.1257535,55.7998405 61.6094152,55.6206811 61.9777942,55.2641794 C62.7164298,54.5493589 62.7164298,53.3937264 61.9777942,52.6789059 L60.0885845,50.8506081 Z M46.7289317,57.1713364 C45.9902961,56.4565159 44.7965379,56.4565159 44.0579023,57.1713364 C43.3188912,57.8861568 43.3188912,59.0417893 44.0579023,59.7566098 L45.9467365,61.5849076 C46.3151155,61.9414094 46.7987772,62.1205687 47.2824389,62.1205687 C47.7661006,62.1205687 48.2497624,61.9414094 48.6181414,61.5849076 C49.3567769,60.8700872 49.3567769,59.7144547 48.6181414,58.9996342 L46.7289317,57.1713364 Z M24.6006571,63.0258142 C23.8620216,62.3109937 22.6682633,62.3109937 21.9296278,63.0258142 C21.1909922,63.7406347 21.1909922,64.8962672 21.9296278,65.6110876 L23.8188375,67.4393854 C24.1872165,67.7958872 24.6708782,67.9750465 25.1541644,67.9750465 C25.6378261,67.9750465 26.1214878,67.7958872 26.4898668,67.4393854 C27.2285024,66.724565 27.2285024,65.5689325 26.4898668,64.854112 L24.6006571,63.0258142 Z M15.001399,17.2958375 C14.2627634,16.581017 13.0686297,16.581017 12.3299941,17.2958375 C11.5913586,18.010658 11.5913586,19.1659271 12.3299941,19.8807475 L14.2192038,21.7090454 C14.5875828,22.0655471 15.0712446,22.2447065 15.5549063,22.2447065 C16.038568,22.2447065 16.5222297,22.0655471 16.8906087,21.7090454 C17.6292443,20.9942249 17.6292443,19.8389558 16.8906087,19.1241353 L15.001399,17.2958375 Z M37.3174304,38.8378447 C36.5784193,38.1230242 35.3846611,38.1230242 34.6460256,38.8378447 C33.90739,39.5526652 33.90739,40.7079342 34.6460256,41.4231181 L36.5352353,43.2510525 C36.9036143,43.6075543 37.387276,43.787077 37.8709377,43.787077 C38.3542239,43.787077 38.8378856,43.6075543 39.2062646,43.2510525 C39.9452757,42.5362321 39.9452757,41.380963 39.2062646,40.6661425 L37.3174304,38.8378447 Z M89.3703961,18.6844135 C88.6317605,17.969593 87.4380023,17.969593 86.6993668,18.6844135 C85.9607312,19.399234 85.9607312,20.5548665 86.6993668,21.269687 L88.5885765,23.0979848 C88.9569554,23.4544865 89.4406172,23.6336459 89.9242789,23.6336459 C90.4075651,23.6336459 90.8912268,23.4544865 91.2596058,23.0979848 C91.9982413,22.3831643 91.9982413,21.2275318 91.2596058,20.5127113 L89.3703961,18.6844135 Z M72.4054357,23.6129317 C72.6206051,24.4447691 73.3896572,24.9989639 74.2360652,24.9989639 C74.3888993,24.9989639 74.5421089,24.9804302 74.6968206,24.9440895 C75.7095812,24.6991536 76.3235462,23.7063272 76.0723275,22.728037 L74.1831178,15.4152092 C73.9300215,14.4332849 72.9003628,13.8427495 71.8917329,14.0840514 C70.8789723,14.3289873 70.2650073,15.3218137 70.516226,16.3001038 L72.4054357,23.6129317 Z M45.3237592,29.0763842 C45.5393041,29.9082215 46.3079807,30.4624164 47.1543887,30.4624164 C47.3072228,30.4624164 47.4604325,30.444246 47.6155196,30.407542 C48.6279047,30.1626061 49.2418697,29.1697797 48.990651,28.1914895 L47.1014413,20.8786616 C46.848345,19.8967374 45.8186863,19.3062019 44.8100564,19.5475038 C43.7972958,19.7924398 43.1833308,20.7852662 43.4345495,21.7635563 L45.3237592,29.0763842 Z M24.5578485,28.0650241 C24.7733934,28.8968614 25.5420701,29.4506928 26.3884781,29.4506928 C26.5416877,29.4506928 26.6945218,29.4325225 26.849609,29.3958185 C27.8619941,29.1508825 28.4759591,28.1580561 28.2247404,27.1801294 L26.3355307,19.8669381 C26.0824344,18.8850139 25.0527757,18.2944784 24.0441457,18.5357803 C23.0313851,18.7810796 22.4174201,19.7735426 22.6686388,20.7518328 L24.5578485,28.0650241 Z M43.653474,40.0643414 C44.021853,40.4208432 44.5055147,40.6000025 44.9891764,40.6000025 C45.4724626,40.6000025 45.9561243,40.4208432 46.3245033,40.0643414 C47.0635144,39.349521 47.0635144,38.1942519 46.3245033,37.479068 L44.4356692,35.6511336 C43.6966581,34.9359497 42.5028999,34.9359497 41.7642643,35.6511336 C41.0256287,36.3659541 41.0256287,37.5212231 41.7642643,38.2360436 L43.653474,40.0643414 Z M78.7279608,99.7974586 L78.6239435,100.013322 C78.0704362,101.408076 76.6611331,102.344211 75.1177715,102.344211 L26.1973416,102.344211 C24.6539801,102.344211 23.2446769,101.406259 22.6911697,100.013322 L5.8095733,69.9418022 C7.4776054,68.6967717 9.42915039,67.9601469 11.4336428,67.7133939 C11.5770891,67.6948602 11.7186577,67.6948602 11.8624795,67.683958 C12.3382554,67.6418028 12.8162845,67.6272666 13.2943135,67.6418028 C13.4907072,67.6476173 13.6871009,67.6603366 13.8819925,67.6748728 C14.346503,67.7115769 14.8076339,67.7773534 15.2646341,67.8667514 C15.4197213,67.8980044 15.5763106,67.9143577 15.7295202,67.9510617 C16.3055583,68.0880659 16.872584,68.2708594 17.4260913,68.4939909 C17.593946,68.5615845 17.7527883,68.6455314 17.9172633,68.7225736 C18.3269488,68.9108181 18.7294996,69.1208671 19.1185318,69.3567178 C19.286762,69.4591985 19.4549921,69.559862 19.6172141,69.6714278 C20.1219046,70.0152103 20.6130765,70.3862483 21.0663216,70.8157947 C21.0738319,70.8230628 21.0832198,70.8285139 21.0911056,70.8357821 C21.0911056,70.8357821 21.0929831,70.8357821 21.0948607,70.8375991 L22.4170446,72.0975292 L23.7433592,70.8357821 C24.0133536,70.5799439 24.3212749,70.3880653 24.6085429,70.1612997 C29.142496,66.6090017 35.8454165,66.7972463 40.0789586,70.8357821 L41.4109059,72.1047974 L42.7372204,70.8285139 C44.894547,68.7498291 47.7093981,67.7003113 50.5430249,67.6381688 C50.6301441,67.6363517 50.7168877,67.6145474 50.8040069,67.6145474 C50.902016,67.6145474 51.0004006,67.6399858 51.1006628,67.6418028 C53.1918989,67.6948602 55.2718696,68.2726764 57.0814704,69.4228578 C57.7145866,69.8247853 58.313531,70.2928528 58.8689158,70.8285139 L60.2023652,72.1120655 L61.5343125,70.830331 L61.53619,70.830331 C62.0915749,70.2946699 62.6923969,69.8247853 63.3236355,69.4228578 C67.7479386,66.6108188 73.7745588,67.0807033 77.6660079,70.8285139 L78.9960776,72.1084314 L80.3299024,70.832148 C80.7887802,70.3935164 81.2855849,70.0170274 81.7959081,69.6677938 C81.9543749,69.559862 82.11885,69.4591985 82.283325,69.3585349 C82.6723572,69.1208671 83.0730304,68.9108181 83.4827159,68.7225736 C83.6453134,68.6473485 83.8022781,68.5634016 83.9682552,68.495808 C84.5161298,68.2744935 85.0752698,68.093517 85.6479282,67.9565128 C85.8082726,67.9179917 85.9727476,67.8980044 86.1353451,67.8667514 C86.5810799,67.7791705 87.0286923,67.7152109 87.4804354,67.6785069 C87.6787066,67.6621536 87.8788555,67.6494344 88.0793798,67.6436199 C88.5476455,67.6290836 89.0181642,67.6454369 89.4849278,67.685775 C89.6321292,67.6984942 89.777453,67.6984942 89.9250299,67.7152109 C91.9178814,67.9601469 93.8562834,68.6967717 95.5149277,69.9399852 L78.7279608,99.7974586 Z M26.030989,76.2694352 L31.6986181,96.3803478 C31.9727431,97.3550039 31.3794314,98.3587325 30.3723035,98.6254728 C30.2063264,98.669445 30.0380963,98.6894324 29.8736213,98.6894324 C29.0426093,98.6894324 28.282945,98.1555883 28.0523795,97.3422847 L22.385126,77.2313721 C22.1110009,76.256716 22.7043126,75.2529874 23.711065,74.9862471 C24.7125602,74.7100582 25.7553619,75.2951425 26.030989,76.2694352 Z M77.601795,74.98443 C78.6089229,75.2511704 79.2018591,76.256716 78.9281096,77.2291916 L73.2604805,97.3382872 C73.0317926,98.1519542 72.2706262,98.6857983 71.4392388,98.6857983 C71.2751393,98.6857983 71.1069091,98.665811 70.9405565,98.6218388 C69.9338041,98.3550984 69.3404924,97.3495528 69.6142419,96.3767138 L75.281871,76.2676182 C75.5559961,75.2933255 76.5912875,74.7191433 77.601795,74.98443 Z M60.2744638,74.9277386 C61.3135104,75.0189536 62.0784319,75.9092994 61.9860555,76.9148451 L60.0968458,97.0239406 C60.0078491,97.9709778 59.1843474,98.6857983 58.217024,98.6857983 C58.1603214,98.6857983 58.1036188,98.6839813 58.0450387,98.6785302 C57.0041145,98.5873152 56.239193,97.6987864 56.333447,96.6914237 L58.2226567,76.5823282 C58.3172861,75.5785996 59.2316621,74.8416113 60.2744638,74.9277386 Z M41.0406493,74.9277386 C42.0909613,74.8452454 42.997827,75.5804166 43.0924565,76.5823282 L44.9812906,96.6914237 C45.0759201,97.6987864 44.3087455,98.5873152 43.2696989,98.6785302 C43.2133719,98.6839813 43.1547917,98.6857983 43.0980892,98.6857983 C42.1307657,98.6857983 41.3068885,97.9727949 41.2182673,97.0239406 L39.3290576,76.9148451 C39.2344281,75.9092994 40.0016027,75.0189536 41.0406493,74.9277386 Z" id="path-1"></path>
    </defs>
    <g id="Page-1" stroke="none" stroke-width="1" fill="none" fill-rule="evenodd">
        <g id="brigadeiro">
            <mask id="mask-2" fill="white">
                <use xlink:href="#path-1"></use>
            </mask>
            <g id="recorte1"></g>
            <polygon id="preenchimento" fill="#503E37" mask="url(#mask-2)" points="0 109 101 109 101 0 0 0"></polygon>
        </g>
    </g>
</svg>